{"title":"The Lone Ranger (1956) DVDRip [Russian]","uid":9042182,"size":734326784,"categoryP":"video","categoryS":"movies","magnet":"?xt=urn:btih:331f43ff370cb19b9c648fa0d498937223534065&amp;dn=The+Lone+Ranger+%281956%29+DVDRip+%5BRussian%5D&amp;tr=udp%3A%2F%2Ftracker.openbittorrent.com%3A80&amp;tr=udp%3A%2F%2Fopen.demonii.com%3A1337&amp;tr=udp%3A%2F%2Ftracker.coppersurfer.tk%3A6969&amp;tr=udp%3A%2F%2Fexodus.desync.com%3A6969","seeders":5,"leechers":0,"uploader":"yfjfrj","files":1,"time":1381660690,"description":"General\nComplete name                            : C:UsersivanDesktopLone Ranger, The (1956).avi\nFormat                                   : AVI\nFormat/Info                              : Audio Video Interleave\nFile size                                : 700 MiB\nDuration                                 : 1h 26mn\nOverall bit rate                         : 1 134 Kbps\nWriting application                      : VirtualDubMod 1.5.4.1 (build 2178/release)\nWriting library                          : VirtualDubMod build 2178/release\n\nVideo\nID                                       : 0\nFormat                                   : MPEG-4 Visual\nFormat settings, BVOP                    : 1\nFormat settings, QPel                    : No\nFormat settings, GMC                     : No warppoints\nFormat settings, Matrix                  : Default (H.263)\nMuxing mode                              : Packed bitstream\nCodec ID                                 : DX50\nCodec ID/Hint                            : DivX 5\nDuration                                 : 1h 26mn\nBit rate                                 : 999 Kbps\nWidth                                    : 512 pixels\nHeight                                   : 384 pixels\nDisplay aspect ratio                     : 4:3\nFrame rate                               : 25.000 fps\nColor space                              : YUV\nChroma subsampling                       : 4:2:0\nBit depth                                : 8 bits\nScan type                                : Progressive\nCompression mode                         : Lossy\nBits/(Pixel*Frame)                       : 0.203\nStream size                              : 617 MiB (88%)\nWriting library                          : DivX 5.2.1 (WaffleDay) (UTC 2004-09-08)\n\nAudio\nID                                       : 1\nFormat                                   : MPEG Audio\nFormat version                           : Version 1\nFormat profile                           : Layer 3\nMode                                     : Joint stereo\nMode extension                           : MS Stereo\nCodec ID                                 : 55\nCodec ID/Hint                            : MP3\nDuration                                 : 1h 26mn\nBit rate mode                            : Constant\nBit rate                                 : 128 Kbps\nChannel(s)                               : 2 channels\nSampling rate                            : 48.0 KHz\nCompression mode                         : Lossy\nStream size                              : 79.0 MiB (11%)\nAlignment                                : Aligned on interleaves\nInterleave, duration                     : 80 ms (2.00 video frames)\nInterleave, preload duration             : 504 ms\nWriting library                          : LAME3.96r\nEncoding settings                        : -m j -V 4 -q 2 -lowpass 17.5 -b 128\nLanguage                                 : Russian\n","torrent":{"xt":"urn:btih:331f43ff370cb19b9c648fa0d498937223534065","amp;dn":"The+Lone+Ranger+%281956%29+DVDRip+%5BRussian%5D","amp;tr":["udp%3A%2F%2Ftracker.openbittorrent.com%3A80","udp%3A%2F%2Fopen.demonii.com%3A1337","udp%3A%2F%2Ftracker.coppersurfer.tk%3A6969","udp%3A%2F%2Fexodus.desync.com%3A6969"],"infoHash":"331f43ff370cb19b9c648fa0d498937223534065","infoHashBuffer":{"type":"Buffer","data":[51,31,67,255,55,12,177,155,156,100,143,160,212,152,147,114,35,83,64,101]},"announce":[],"urlList":[]}}